# xmcd
#
# Track frame offsets:
#	150
#	22186
#	42541
#	69574
#	89252
#	112421
#	132158
#	148653
#	173476
#	198541
#
# Disc length: 3086 seconds
#
# Revision: 5
# Processed by: cddbd v1.4b42PL1 Copyright (c) Steve Scherf et al.
# Submitted via: CDmax 1.8
#
DISCID=970c0c0a
DTITLE=Mazzy Star - So Tonight That I Might See
DYEAR=1900
DGENRE=Blues
TTITLE0=Fade Into You
TTITLE1=Bells Ring
TTITLE2=Mary of Silence
TTITLE3=Five String Serenade
TTITLE4=Blue Light
TTITLE5=She's My Baby
TTITLE6=Unreflected
TTITLE7=Wasted
TTITLE8=Into Dust
TTITLE9=So Tonight That I Might See
EXTD=
EXTT0=
EXTT1=
EXTT2=
EXTT3=
EXTT4=
EXTT5=
EXTT6=
EXTT7=
EXTT8=
EXTT9=
PLAYORDER=
